# xmcd CD database file
#
# Track frame offsets:
#	150
#	14420
#	28443
#	41274
#	54236
#	68484
#	81702
#	99624
#	114313
#	129252
#
# Disc length: 1906 seconds
#
# Revision: 10
# Processed by: cddbd v1.5.2PL0 Copyright (c) Steve Scherf et al.
# Submitted via: CDex 1.70
#
DISCID=7d07700a
DTITLE=Clay Walker - Rumor Has It
DYEAR=1997
DGENRE=Country
TTITLE0=Rumor Has It
TTITLE1=One, Two, I Love You
TTITLE2=I'd Say That's Right
TTITLE3=Heart Over Head Over Heels
TTITLE4=Watch This
TTITLE5=You'll Never Hear The End Of It
TTITLE6=Country Boy And City Girl
TTITLE7=I Need A Margarita
TTITLE8=That's Us
TTITLE9=Then What
EXTD=YEAR: 1997
EXTT0=
EXTT1=
EXTT2=
EXTT3=
EXTT4=
EXTT5=
EXTT6=
EXTT7=
EXTT8=
EXTT9=
PLAYORDER=
